<svg xmlns="http://www.w3.org/2000/svg" xmlns:xlink="http://www.w3.org/1999/xlink" id="Layer_1" x="0" y="0" version="1.1" viewBox="0 0 24 24" xml:space="preserve" style="enable-background:new 0 0 24 24"><style type="text/css">.st0{fill-rule:evenodd;clip-rule:evenodd;fill:#1749b3}</style><path d="M15.9,16.6c-1.7,1.5-3.9,2.4-6.4,2.4C4.3,19,0,14.7,0,9.5S4.3,0,9.5,0S19,4.3,19,9.5c0,2.4-0.9,4.7-2.4,6.4	l7.4,7.4L23.3,24C23.3,24,15.9,16.6,15.9,16.6z M9.5,1C14.2,1,18,4.8,18,9.5S14.2,18,9.5,18S1,14.2,1,9.5S4.8,1,9.5,1z M5,9h4V5h1v4	h4v1h-4v4H9v-4H5V9z" class="st0"/></svg>